<?xml version="1.0" standalone="no"?><svg xmlns="http://www.w3.org/2000/svg" viewBox="0 0 1440 320"><path fill="#ffffff" fill-opacity="1" d="M0,64L24,90.7C48,117,96,171,144,186.7C192,203,240,181,288,144C336,107,384,53,432,64C480,75,528,149,576,165.3C624,181,672,139,720,138.7C768,139,816,181,864,197.3C912,213,960,203,1008,165.3C1056,128,1104,64,1152,42.7C1200,21,1248,43,1296,53.3C1344,64,1392,64,1416,64L1440,64L1440,0L1416,0C1392,0,1344,0,1296,0C1248,0,1200,0,1152,0C1104,0,1056,0,1008,0C960,0,912,0,864,0C816,0,768,0,720,0C672,0,624,0,576,0C528,0,480,0,432,0C384,0,336,0,288,0C240,0,192,0,144,0C96,0,48,0,24,0L0,0Z"></path></svg>