<?xml version="1.0" standalone="no"?><svg xmlns="http://www.w3.org/2000/svg" viewBox="0 0 1440 320"><path fill="#ffffff" fill-opacity="1" d="M0,96L24,122.7C48,149,96,203,144,224C192,245,240,235,288,218.7C336,203,384,181,432,170.7C480,160,528,160,576,181.3C624,203,672,245,720,245.3C768,245,816,203,864,160C912,117,960,75,1008,101.3C1056,128,1104,224,1152,234.7C1200,245,1248,171,1296,133.3C1344,96,1392,96,1416,96L1440,96L1440,320L1416,320C1392,320,1344,320,1296,320C1248,320,1200,320,1152,320C1104,320,1056,320,1008,320C960,320,912,320,864,320C816,320,768,320,720,320C672,320,624,320,576,320C528,320,480,320,432,320C384,320,336,320,288,320C240,320,192,320,144,320C96,320,48,320,24,320L0,320Z"></path></svg>